<svg width="147" height="88" viewBox="0 0 147 88" fill="none" xmlns="http://www.w3.org/2000/svg">
<path d="M0 0H147L124.377 60.5H23.2446L0 0Z" fill="#883B00"/>
<line x1="116" y1="48" x2="31" y2="48" stroke="#AD5100" stroke-opacity="0.7"/>
<line x1="120" y1="6" x2="35" y2="6" stroke="#AD5100" stroke-opacity="0.7"/>
<line x1="129" y1="33" x2="44" y2="33" stroke="#AD5100" stroke-opacity="0.7"/>
<line x1="137" y1="18" x2="17" y2="18" stroke="#AD5100" stroke-opacity="0.7"/>
<path d="M39 38.5C51.1503 38.5 61 48.3497 61 60.5C61 72.6503 51.1503 82.5 39 82.5C26.8497 82.5 17 72.6503 17 60.5C17 48.3497 26.8497 38.5 39 38.5ZM39 41.5C28.5066 41.5 20 50.0066 20 60.5C20 70.9934 28.5066 79.5 39 79.5C49.4934 79.5 58 70.9934 58 60.5C58 50.0066 49.4934 41.5 39 41.5Z" fill="#979797"/>
<circle cx="39" cy="60.5" r="7" fill="#979797"/>
<path d="M39 59.5L60 56.5V64.5L39 61.5V59.5Z" fill="#979797"/>
<path d="M40 61.5L19 64.5L19 56.5L40 59.5L40 61.5Z" fill="#979797"/>
<path d="M38.1213 60.4706L50.8492 43.5L56.5061 49.1569L39.5355 61.8848L38.1213 60.4706Z" fill="#979797"/>
<path d="M39.5355 59.6213L56.5061 72.3492L50.8492 78.0061L38.1213 61.0355L39.5355 59.6213Z" fill="#979797"/>
<path d="M37.9706 60.8848L21 48.1569L26.6569 42.5L39.3848 59.4706L37.9706 60.8848Z" fill="#979797"/>
<path d="M40.3848 61.0355L27.6569 78.0061L22 72.3492L38.9706 59.6213L40.3848 61.0355Z" fill="#979797"/>
<path d="M38 60.5L35 39.5L43 39.5L40 60.5L38 60.5Z" fill="#979797"/>
<path d="M40 60.5L43 81.5L35 81.5L38 60.5L40 60.5Z" fill="#979797"/>
<path d="M114.694 39.2496C126.43 42.3944 133.395 54.4578 130.25 66.194C127.106 77.9303 115.042 84.8951 103.306 81.7504C91.5697 78.6057 84.6049 66.5422 87.7496 54.806C90.8944 43.0697 102.958 36.1049 114.694 39.2496ZM113.918 42.1474C103.782 39.4315 93.3633 45.4466 90.6474 55.5824C87.9315 65.7183 93.9466 76.1367 104.082 78.8526C114.218 81.5685 124.637 75.5534 127.353 65.4176C130.068 55.2817 124.053 44.8633 113.918 42.1474Z" fill="#979797"/>
<circle cx="109" cy="60.5" r="7" transform="rotate(15 109 60.5)" fill="#979797"/>
<path d="M109.259 59.5341L130.32 62.0715L128.249 69.7989L108.741 61.4659L109.259 59.5341Z" fill="#979797"/>
<path d="M109.707 61.7248L88.6462 59.1873L90.7168 51.4599L110.225 59.7929L109.707 61.7248Z" fill="#979797"/>
<path d="M108.159 60.2442L124.845 47.1461L128.845 54.0743L109.159 61.9762L108.159 60.2442Z" fill="#979797"/>
<path d="M109.745 59.7899L122.843 76.4764L115.915 80.4764L108.013 60.7899L109.745 59.7899Z" fill="#979797"/>
<path d="M107.906 60.6052L94.808 43.9187L101.736 39.9187L109.638 59.6052L107.906 60.6052Z" fill="#979797"/>
<path d="M110.199 61.3757L93.5125 74.4738L89.5125 67.5456L109.199 59.6437L110.199 61.3757Z" fill="#979797"/>
<path d="M108.034 60.2412L110.572 39.1803L118.299 41.2508L109.966 60.7588L108.034 60.2412Z" fill="#979797"/>
<path d="M109.966 60.7588L107.429 81.8197L99.7011 79.7492L108.034 60.2412L109.966 60.7588Z" fill="#979797"/>
</svg>
