<svg width="90" height="90" viewBox="0 0 90 90" fill="none" xmlns="http://www.w3.org/2000/svg">
<circle cx="45" cy="45" r="45" fill="#A9A9A9"/>
<rect x="11" y="37.5" width="5" height="11" rx="2.5" fill="black"/>
<rect x="35" y="37.5" width="5" height="11" rx="2.5" fill="black"/>
<rect x="41" y="43.5" width="5" height="5" rx="2.5" fill="black"/>
<rect x="47" y="45.5" width="5" height="3" rx="1.5" fill="black"/>
<rect x="53" y="43.5" width="5" height="5" rx="2.5" fill="black"/>
<rect x="17" y="34.5" width="5" height="14" rx="2.5" fill="black"/>
<rect x="29" y="34.5" width="5" height="14" rx="2.5" fill="black"/>
<rect x="23" y="30.5" width="5" height="18" rx="2.5" fill="black"/>
<rect x="59" y="37.5" width="5" height="11" rx="2.5" fill="black"/>
<rect x="65" y="30.5" width="5" height="18" rx="2.5" fill="black"/>
<rect x="71" y="24.5" width="5" height="24" rx="2.5" fill="black"/>
<path d="M11.5 34.5C25.5 23.5 25.5 23.5 38.0175 33.4524C45.6396 39.5125 46 41.5 49.5 41.5C53 41.5 66 29 73 21L75.5 18" stroke="black" stroke-linecap="round"/>
<path d="M58.3275 28.0161L61.9075 24.5044L64.936 24.8729L65.4089 28.0737L61.8289 31.5855L58.3275 28.0161Z" fill="#883B00"/>
<path d="M11.9297 27.0056L16.2405 23.8213L19.2936 24.5299L19.2113 27.8431L14.9004 31.0274L11.9297 27.0056Z" fill="#883B00"/>
<text fill="black" style="white-space: pre" xml:space="preserve" font-family="Sansita Swashed" font-size="15" font-weight="500" letter-spacing="0em"><tspan x="11.5444" y="65.3">Rollergen</tspan></text>
<path d="M76 52L11 52" stroke="black" stroke-width="2" stroke-linecap="round"/>
</svg>
