<svg width="46" height="6" viewBox="0 0 46 6" fill="none" xmlns="http://www.w3.org/2000/svg">
<path d="M0.00158921 0.995783C0.000913768 1.54574 0.446194 1.99206 0.99615 1.99268L41.0018 2.03725C41.5517 2.03786 41.9981 1.59253 41.9988 1.04257C41.9994 0.492617 41.5542 0.0462936 41.0042 0.0456809L0.998596 0.00110885C0.44864 0.000496115 0.00226466 0.445827 0.00158921 0.995783Z" fill="#D56300"/>
<path d="M0.001223 3.99581C0.000547557 4.54577 0.445828 4.99209 0.995784 4.99271L41.0014 5.03728C41.5514 5.03789 41.9977 4.59256 41.9984 4.0426C41.9991 3.49265 41.5538 3.04632 41.0038 3.04571L0.99823 3.00114C0.448274 3.00053 0.00189845 3.44586 0.001223 3.99581Z" fill="#D56300"/>
<path d="M39.5 0.999989L40.799 1.74999V3.24999L39.5 3.99999L38.201 3.24999V1.74999L39.5 0.999989Z" fill="#909090"/>
<path d="M2.5 0.999989L3.79904 1.74999V3.24999L2.5 3.99999L1.20096 3.24999V1.74999L2.5 0.999989Z" fill="#909090"/>
<path d="M39.0006 2.49902C39.0003 2.77462 39.2234 2.9983 39.499 2.99862L44.6378 3.00463C44.9134 3.00495 45.1371 2.7818 45.1374 2.5062C45.1377 2.2306 44.9146 2.00692 44.639 2.00659L39.5002 2.00058C39.2246 2.00026 39.0009 2.22342 39.0006 2.49902Z" fill="black"/>
<path d="M11.25 1.74999C11.3881 1.61192 11.6119 1.61192 11.75 1.74999C11.8881 1.88806 11.8881 2.11192 11.75 2.24999L10.75 3.24999C10.6119 3.38806 10.3881 3.38806 10.25 3.24999C10.1119 3.11192 10.1119 2.88806 10.25 2.74999L11.25 1.74999Z" fill="#909090"/>
<path d="M15.25 1.74999C15.3881 1.61192 15.6119 1.61192 15.75 1.74999C15.8881 1.88806 15.8881 2.11192 15.75 2.24999L14.75 3.24999C14.6119 3.38806 14.3881 3.38806 14.25 3.24999C14.1119 3.11192 14.1119 2.88806 14.25 2.74999L15.25 1.74999Z" fill="#909090"/>
<path d="M19.25 1.74999C19.3881 1.61192 19.6119 1.61192 19.75 1.74999C19.8881 1.88806 19.8881 2.11192 19.75 2.24999L18.75 3.24999C18.6119 3.38806 18.3881 3.38806 18.25 3.24999C18.1119 3.11192 18.1119 2.88806 18.25 2.74999L19.25 1.74999Z" fill="#909090"/>
<path d="M23.25 1.74999C23.3881 1.61192 23.6119 1.61192 23.75 1.74999C23.8881 1.88806 23.8881 2.11192 23.75 2.24999L22.75 3.24999C22.6119 3.38806 22.3881 3.38806 22.25 3.24999C22.1119 3.11192 22.1119 2.88806 22.25 2.74999L23.25 1.74999Z" fill="#909090"/>
<path d="M27.25 1.74999C27.3881 1.61192 27.6119 1.61192 27.75 1.74999C27.8881 1.88806 27.8881 2.11192 27.75 2.24999L26.75 3.24999C26.6119 3.38806 26.3881 3.38806 26.25 3.24999C26.1119 3.11192 26.1119 2.88806 26.25 2.74999L27.25 1.74999Z" fill="#909090"/>
<path d="M31.25 1.74999C31.3881 1.61192 31.6119 1.61192 31.75 1.74999C31.8881 1.88806 31.8881 2.11192 31.75 2.24999L30.75 3.24999C30.6119 3.38806 30.3881 3.38806 30.25 3.24999C30.1119 3.11192 30.1119 2.88806 30.25 2.74999L31.25 1.74999Z" fill="#909090"/>
<path d="M35.25 1.74999C35.3881 1.61192 35.6119 1.61192 35.75 1.74999C35.8881 1.88806 35.8881 2.11192 35.75 2.24999L34.75 3.24999C34.6119 3.38806 34.3881 3.38806 34.25 3.24999C34.1119 3.11192 34.1119 2.88806 34.25 2.74999L35.25 1.74999Z" fill="#909090"/>
<path d="M7.25 1.74999C7.38807 1.61192 7.61193 1.61192 7.75 1.74999C7.88807 1.88806 7.88807 2.11192 7.75 2.24999L6.75 3.24999C6.61193 3.38806 6.38807 3.38806 6.25 3.24999C6.11193 3.11192 6.11193 2.88806 6.25 2.74999L7.25 1.74999Z" fill="#909090"/>
</svg>
