<svg width="69" height="8" viewBox="0 0 69 8" fill="none" xmlns="http://www.w3.org/2000/svg">
<g id="rail-l">
<path id="Rectangle 13" d="M0.0024117 1.51016C0.00138735 2.3442 0.676679 3.02107 1.51072 3.022L62.1814 3.0896C63.0154 3.09052 63.6924 2.41516 63.6934 1.58112C63.6944 0.74708 63.0192 0.0702059 62.1851 0.0692767L1.51443 0.00168071C0.680388 0.000751467 0.00343605 0.676119 0.0024117 1.51016Z" fill="#D56300"/>
<path id="Rectangle 14" d="M0.00185475 6.05987C0.0008304 6.89391 0.676122 7.57078 1.51016 7.57171L62.1808 7.6393C63.0149 7.64023 63.6918 6.96487 63.6929 6.13083C63.6939 5.29679 63.0186 4.61992 62.1846 4.61899L1.51387 4.55139C0.679831 4.55046 0.0028791 5.22583 0.00185475 6.05987Z" fill="#D56300"/>
<path id="Polygon 1" d="M59.9039 1.51654L61.874 2.65395V4.92878L59.9039 6.0662L57.9338 4.92878V2.65395L59.9039 1.51654Z" fill="#909090"/>
<path id="Polygon 2" d="M3.79139 1.51654L5.76145 2.65395V4.92878L3.79139 6.0662L1.82133 4.92878V2.65395L3.79139 1.51654Z" fill="#909090"/>
<path id="Rectangle 15" d="M59.1465 3.7899C59.146 4.20786 59.4845 4.54708 59.9024 4.54757L67.6956 4.55669C68.1136 4.55717 68.4528 4.21875 68.4533 3.80078C68.4538 3.38282 68.1154 3.0436 67.6974 3.04311L59.9042 3.03399C59.4862 3.0335 59.147 3.37193 59.1465 3.7899Z" fill="black"/>
<path id="Rectangle 17" d="M17.0868 2.62837C17.2821 2.43311 17.5987 2.43311 17.7939 2.62837L17.8451 2.67954C18.0404 2.8748 18.0404 3.19138 17.8451 3.38665L16.2774 4.95437C16.0821 5.14963 15.7655 5.14963 15.5703 4.95437L15.5191 4.9032C15.3238 4.70794 15.3238 4.39136 15.5191 4.19609L17.0868 2.62837Z" fill="#909090"/>
<path id="Rectangle 20" d="M23.153 2.62837C23.3483 2.43311 23.6649 2.43311 23.8602 2.62837L23.9113 2.67954C24.1066 2.8748 24.1066 3.19138 23.9113 3.38665L22.3436 4.95437C22.1483 5.14963 21.8318 5.14963 21.6365 4.95437L21.5853 4.9032C21.3901 4.70794 21.3901 4.39136 21.5853 4.19609L23.153 2.62837Z" fill="#909090"/>
<path id="Rectangle 21" d="M29.2193 2.62837C29.4145 2.43311 29.7311 2.43311 29.9264 2.62837L29.9775 2.67954C30.1728 2.8748 30.1728 3.19138 29.9775 3.38665L28.4098 4.95437C28.2146 5.14963 27.898 5.14963 27.7027 4.95437L27.6515 4.9032C27.4563 4.70794 27.4563 4.39136 27.6515 4.19609L29.2193 2.62837Z" fill="#909090"/>
<path id="Rectangle 22" d="M35.2855 2.62837C35.4807 2.43311 35.7973 2.43311 35.9926 2.62837L36.0438 2.67954C36.239 2.8748 36.239 3.19138 36.0438 3.38665L34.476 4.95437C34.2808 5.14963 33.9642 5.14963 33.7689 4.95437L33.7178 4.9032C33.5225 4.70794 33.5225 4.39136 33.7178 4.19609L35.2855 2.62837Z" fill="#909090"/>
<path id="Rectangle 23" d="M41.3517 2.62837C41.547 2.43311 41.8635 2.43311 42.0588 2.62837L42.11 2.67954C42.3052 2.8748 42.3052 3.19138 42.11 3.38665L40.5423 4.95437C40.347 5.14963 40.0304 5.14963 39.8351 4.95437L39.784 4.9032C39.5887 4.70794 39.5887 4.39136 39.784 4.19609L41.3517 2.62837Z" fill="#909090"/>
<path id="Rectangle 24" d="M47.4179 2.62837C47.6132 2.43311 47.9298 2.43311 48.125 2.62837L48.1762 2.67954C48.3714 2.8748 48.3714 3.19138 48.1762 3.38665L46.6085 4.95437C46.4132 5.14963 46.0966 5.14963 45.9014 4.95437L45.8502 4.9032C45.6549 4.70794 45.6549 4.39136 45.8502 4.19609L47.4179 2.62837Z" fill="#909090"/>
<path id="Rectangle 25" d="M53.4841 2.62837C53.6794 2.43311 53.996 2.43311 54.1912 2.62837L54.2424 2.67954C54.4377 2.8748 54.4377 3.19138 54.2424 3.38665L52.6747 4.95437C52.4794 5.14963 52.1628 5.14963 51.9676 4.95437L51.9164 4.9032C51.7211 4.70794 51.7211 4.39136 51.9164 4.19609L53.4841 2.62837Z" fill="#909090"/>
<path id="Rectangle 19" d="M11.0206 2.62837C11.2159 2.43311 11.5325 2.43311 11.7277 2.62837L11.7789 2.67954C11.9741 2.8748 11.9741 3.19138 11.7789 3.38665L10.2112 4.95437C10.0159 5.14963 9.69931 5.14963 9.50405 4.95437L9.45288 4.9032C9.25762 4.70794 9.25762 4.39136 9.45288 4.19609L11.0206 2.62837Z" fill="#909090"/>
</g>
</svg>
